<svg width="27" height="27" viewBox="0 0 27 27" fill="none" xmlns="http://www.w3.org/2000/svg">
<g clip-path="url(#clip0_456_268)">
<path d="M3.68534e-09 5.90625C3.68534e-09 5.23492 0.266684 4.59109 0.741386 4.11639C1.21609 3.64168 1.85992 3.375 2.53125 3.375H17.7188C18.3901 3.375 19.0339 3.64168 19.5086 4.11639C19.9833 4.59109 20.25 5.23492 20.25 5.90625V8.4375H21.9713C22.3505 8.43784 22.7248 8.52339 23.0666 8.68783C23.4083 8.85228 23.7087 9.09141 23.9456 9.38756L26.4448 12.5094C26.8044 12.9586 27.0002 13.5169 27 14.0923V17.7188C27 18.3901 26.7333 19.0339 26.2586 19.5086C25.7839 19.9833 25.1401 20.25 24.4688 20.25H23.625C23.625 21.1451 23.2694 22.0035 22.6365 22.6365C22.0035 23.2694 21.1451 23.625 20.25 23.625C19.3549 23.625 18.4965 23.2694 17.8635 22.6365C17.2306 22.0035 16.875 21.1451 16.875 20.25H8.4375C8.43847 20.6999 8.3495 21.1454 8.17581 21.5604C8.00212 21.9753 7.74722 22.3514 7.42609 22.6665C7.10497 22.9815 6.7241 23.2292 6.30588 23.3949C5.88766 23.5606 5.44053 23.6411 4.99077 23.6315C4.54101 23.622 4.0977 23.5226 3.6869 23.3392C3.2761 23.1559 2.90611 22.8922 2.59866 22.5638C2.29122 22.2354 2.05253 21.8488 1.89664 21.4269C1.74074 21.0049 1.67078 20.556 1.69087 20.1066C1.19652 19.9326 0.768357 19.6094 0.465487 19.1817C0.162617 18.754 -2.82689e-05 18.2428 3.68534e-09 17.7188L3.68534e-09 5.90625ZM2.18362 18.4883C2.48873 17.9887 2.91855 17.5772 3.43085 17.2941C3.94316 17.011 4.52031 16.8661 5.10558 16.8736C5.69085 16.8811 6.2641 17.0407 6.76899 17.3368C7.27388 17.6329 7.69303 18.0553 7.98525 18.5625H17.3272C17.6241 18.05 18.05 17.6241 18.5625 17.3272V5.90625C18.5625 5.68247 18.4736 5.46786 18.3154 5.30963C18.1571 5.15139 17.9425 5.0625 17.7188 5.0625H2.53125C2.30747 5.0625 2.09286 5.15139 1.93463 5.30963C1.77639 5.46786 1.6875 5.68247 1.6875 5.90625V17.7188C1.68737 17.8812 1.73411 18.0401 1.82211 18.1766C1.91012 18.3131 2.03564 18.4213 2.18362 18.4883ZM20.25 16.875C20.8424 16.875 21.4244 17.031 21.9375 17.3272C22.4505 17.6234 22.8765 18.0494 23.1728 18.5625H24.4688C24.6925 18.5625 24.9071 18.4736 25.0654 18.3154C25.2236 18.1571 25.3125 17.9425 25.3125 17.7188V14.0906C25.3122 13.8991 25.2467 13.7135 25.1269 13.5641L22.6294 10.4423C22.5505 10.3434 22.4503 10.2636 22.3364 10.2087C22.2225 10.1538 22.0977 10.1252 21.9713 10.125H20.25V16.875ZM5.0625 18.5625C4.61495 18.5625 4.18572 18.7403 3.86926 19.0568C3.55279 19.3732 3.375 19.8024 3.375 20.25C3.375 20.6976 3.55279 21.1268 3.86926 21.4432C4.18572 21.7597 4.61495 21.9375 5.0625 21.9375C5.51005 21.9375 5.93928 21.7597 6.25574 21.4432C6.57221 21.1268 6.75 20.6976 6.75 20.25C6.75 19.8024 6.57221 19.3732 6.25574 19.0568C5.93928 18.7403 5.51005 18.5625 5.0625 18.5625ZM20.25 18.5625C19.8024 18.5625 19.3732 18.7403 19.0568 19.0568C18.7403 19.3732 18.5625 19.8024 18.5625 20.25C18.5625 20.6976 18.7403 21.1268 19.0568 21.4432C19.3732 21.7597 19.8024 21.9375 20.25 21.9375C20.6976 21.9375 21.1268 21.7597 21.4432 21.4432C21.7597 21.1268 21.9375 20.6976 21.9375 20.25C21.9375 19.8024 21.7597 19.3732 21.4432 19.0568C21.1268 18.7403 20.6976 18.5625 20.25 18.5625Z" fill="#239607"/>
</g>
<defs>
<clipPath id="clip0_456_268">
<rect width="27" height="27" fill="white"/>
</clipPath>
</defs>
</svg>
